# xmcd
#
# Track frame offsets: 
#        150
#        20667
#        41817
#        62355
#        80377
#        101122
#        122482
#        144160
#        162575
#        183152
#        202407
#
# Disc length: 3053 seconds
#
# Revision: 0
# Processed by: cddbd v1.5.1PL0 Copyright (c) Steve Scherf et al.
# Submitted via: ExactAudioCopy v0.95a5
#
DISCID=960beb0b
DTITLE=Rebbie Jackson - Yours Faithfully
DYEAR=1998
DGENRE=R&B/Soul
TTITLE0=What You Need
TTITLE1=Play Your Game
TTITLE2=Yours Faithfully
TTITLE3=Get Back To You
TTITLE4=I Don't Want To Lose You
TTITLE5=Fly Away
TTITLE6=You Take Me Places
TTITLE7=Once In A Lifetime Love
TTITLE8=Baby, I'm In Heaven
TTITLE9=Koo Koo
TTITLE10=Centipede
EXTD=
EXTT0=
EXTT1=
EXTT2=
EXTT3=
EXTT4=
EXTT5=
EXTT6=
EXTT7=
EXTT8=
EXTT9=
EXTT10=
PLAYORDER=
